<svg width="107" height="62" viewBox="0 0 107 62" fill="none" xmlns="http://www.w3.org/2000/svg">
<g clip-path="url(#clip0_2_1444)">
<path d="M72.2188 62C91.4387 62 107 46.5209 107 27.4581H72.2188V62Z" fill="#A1D214"/>
<path d="M19.3202 16.8317V31.9625C19.3202 33.4805 18.1925 34.6004 16.689 34.6004C15.1855 34.6004 14.0579 33.4805 14.0579 31.9625V18.8973H10.1738C10.0736 26.9355 8.74546 31.191 5.58808 33.4805C4.53562 34.252 3.55834 34.6004 2.40565 34.6004C1.00237 34.6004 0.0250854 33.6796 0.0250854 32.3109C0.0250854 31.191 0.626491 30.3698 1.67895 29.9965C4.3101 29.0508 5.18715 26.1391 5.18715 18.3747V16.782C5.18715 15.2639 6.31478 14.144 7.84335 14.144H16.664C18.1925 14.1938 19.3202 15.3137 19.3202 16.8317Z" fill="black"/>
<path d="M43.5518 32.1118C43.5518 33.5303 42.4492 34.6004 40.9457 34.6004C39.818 34.6004 38.9661 33.9534 38.4649 32.7091L38.0389 31.639H30.822L30.396 32.7091C29.8949 33.9534 29.0429 34.6004 27.9152 34.6004C26.4117 34.6004 25.3091 33.5303 25.3091 32.1118C25.3091 31.7385 25.4094 31.2906 25.5848 30.8426L31.9246 15.5626C32.3757 14.4427 33.2527 13.8206 34.4305 13.8206C35.6082 13.8206 36.4853 14.4178 36.9363 15.5626L43.2761 30.8426C43.4766 31.2906 43.5518 31.7634 43.5518 32.1118ZM32.3757 27.483H36.4853L34.4305 21.6099L32.3757 27.483Z" fill="black"/>
<path d="M67.8335 16.4585V31.9625C67.8335 33.4805 66.7059 34.6004 65.2024 34.6004C63.6989 34.6004 62.5712 33.4805 62.5712 31.9625V23.327L54.4523 33.4805C53.8509 34.252 53.0991 34.6004 52.2471 34.6004C50.7687 34.6004 49.616 33.4557 49.616 31.9625V16.4585C49.616 14.9404 50.7436 13.8205 52.2471 13.8205C53.7506 13.8205 54.8783 14.9404 54.8783 16.4585V25.293L62.5211 15.463C63.1977 14.6169 63.7991 13.7957 65.2525 13.7957C66.731 13.8205 67.8335 14.9653 67.8335 16.4585Z" fill="black"/>
<path d="M95.423 16.5331V31.9874C95.423 33.5055 94.2954 34.6253 92.7919 34.6253C91.2883 34.6253 90.1607 33.5055 90.1607 31.9874V24.9695L87.5296 29.1255C86.8029 30.2703 86.1263 30.7431 85.149 30.7431C84.1717 30.7431 83.4951 30.2951 82.7684 29.1255L80.1373 24.9695V31.9874C80.1373 33.5055 79.0097 34.6253 77.5061 34.6253C76.0026 34.6253 74.875 33.5055 74.875 31.9874V16.5331C74.875 14.9902 75.9776 13.8206 77.5061 13.8206C78.5837 13.8206 79.3104 14.3432 80.1624 15.7368L85.149 23.7003L90.1357 15.7368C90.9876 14.3432 91.7394 13.8206 92.7919 13.8206C94.3204 13.8206 95.423 14.9653 95.423 16.5331Z" fill="black"/>
<path d="M46.4585 -9C46.4585 -9 46.1327 5.78234 59.7646 10.0379C59.7896 10.0379 63.1224 -0.961794 46.4585 -9Z" fill="black"/>
<path d="M50.8939 5.11045C52.7232 7.25065 55.2791 9.14199 58.7623 10.3365C50.8438 12.4767 46.0325 5.35931 46.0325 5.35931C47.8869 5.06067 49.4906 4.98601 50.8939 5.11045Z" fill="black"/>
<path d="M6.2415 45.445C6.2415 44.0799 5.2049 43.2842 3.4967 43.2404V42.7294H3.139V43.2404C1.4308 43.2769 0.3942 44.0799 0.3942 45.445C0.3942 46.8028 1.4308 47.6058 3.139 47.6423V48.1606H3.4967V47.6423C5.2049 47.6058 6.2415 46.8028 6.2415 45.445ZM3.4967 47.3357V43.547C4.9859 43.5908 5.8765 44.2697 5.8765 45.4377C5.8765 46.613 4.9859 47.2846 3.4967 47.3357ZM0.7592 45.445C0.7592 44.2624 1.6425 43.5981 3.139 43.547V47.3357C1.6571 47.2846 0.7592 46.6203 0.7592 45.445ZM13.0391 42.89H11.2068V48H11.5791V46.3283H13.0391C14.3239 46.3283 15.0977 45.6859 15.0977 44.6128C15.0977 43.5324 14.3239 42.89 13.0391 42.89ZM13.0391 45.9925H11.5791V43.2258H13.0391C14.1341 43.2258 14.7181 43.7295 14.7181 44.6128C14.7181 45.4888 14.1341 45.9925 13.0391 45.9925ZM20.312 47.6642V45.5691H23.0349V45.2406H20.312V43.2258H23.3561V42.89H19.9397V48H23.4656V47.6642H20.312ZM34.126 42.89V47.6642H31.6148V42.89H31.2425V47.6642H28.7313V42.89H28.359V48H34.4983V42.89H34.126ZM50.7087 48L50.7014 42.89H50.3948L48.1099 46.8393L45.825 42.89H45.5111V48H45.8761V43.6419L48.015 47.3211H48.1975L50.3364 43.6273L50.3437 48H50.7087ZM60.0882 48H60.4897L58.1391 42.89H57.7668L55.4162 48H55.8177L56.4674 46.5619H59.4312L60.0882 48ZM56.6134 46.248L57.9493 43.2988L59.2925 46.248H56.6134ZM67.0334 42.89H65.2011V48H65.5734V46.3283H67.0334C68.3182 46.3283 69.092 45.6859 69.092 44.6128C69.092 43.5324 68.3182 42.89 67.0334 42.89ZM67.0334 45.9925H65.5734V43.2258H67.0334C68.1284 43.2258 68.7124 43.7295 68.7124 44.6128C68.7124 45.4888 68.1284 45.9925 67.0334 45.9925ZM77.4819 48H77.9199L75.8321 45.3793L77.7885 42.89H77.3724L75.5401 45.2406H74.3064V42.89H73.9341V48H74.3064V45.5764H75.5328L77.4819 48ZM82.8539 47.6642V45.5691H85.5768V45.2406H82.8539V43.2258H85.898V42.89H82.4816V48H86.0075V47.6642H82.8539ZM94.1056 42.89H90.0541V43.2258H91.8937V48H92.266V43.2258H94.1056V42.89Z" fill="black"/>
</g>
<defs>
<clipPath id="clip0_2_1444">
<rect width="107" height="71" fill="white" transform="translate(0 -9)"/>
</clipPath>
</defs>
</svg>
