<svg width="17" height="16" viewBox="0 0 17 16" fill="none" xmlns="http://www.w3.org/2000/svg">
<path d="M2.8 15L12.36 0.999999H14.74L5.18 15H2.8ZM4.02 8.56C3.34 8.56 2.74 8.40667 2.22 8.1C1.7 7.78 1.28667 7.33333 0.98 6.76C0.686667 6.17333 0.54 5.48667 0.54 4.7C0.54 3.91333 0.686667 3.23333 0.98 2.66C1.28667 2.08667 1.7 1.64 2.22 1.32C2.74 1 3.34 0.84 4.02 0.84C4.7 0.84 5.3 1 5.82 1.32C6.34 1.64 6.74667 2.08667 7.04 2.66C7.33333 3.23333 7.48 3.91333 7.48 4.7C7.48 5.48667 7.33333 6.17333 7.04 6.76C6.74667 7.33333 6.34 7.78 5.82 8.1C5.3 8.40667 4.7 8.56 4.02 8.56ZM4.02 6.92C4.46 6.92 4.81333 6.74 5.08 6.38C5.34667 6.00667 5.48 5.44667 5.48 4.7C5.48 3.95333 5.34667 3.4 5.08 3.04C4.81333 2.66667 4.46 2.48 4.02 2.48C3.59333 2.48 3.24 2.66667 2.96 3.04C2.69333 3.4 2.56 3.95333 2.56 4.7C2.56 5.43333 2.69333 5.98667 2.96 6.36C3.24 6.73333 3.59333 6.92 4.02 6.92ZM13.52 15.16C12.8533 15.16 12.2533 15.0067 11.72 14.7C11.2 14.38 10.7933 13.9333 10.5 13.36C10.2067 12.7733 10.06 12.0867 10.06 11.3C10.06 10.5133 10.2067 9.83333 10.5 9.26C10.7933 8.68667 11.2 8.24 11.72 7.92C12.2533 7.6 12.8533 7.44 13.52 7.44C14.2133 7.44 14.82 7.6 15.34 7.92C15.86 8.24 16.2667 8.68667 16.56 9.26C16.8533 9.83333 17 10.5133 17 11.3C17 12.0867 16.8533 12.7733 16.56 13.36C16.2667 13.9333 15.86 14.38 15.34 14.7C14.82 15.0067 14.2133 15.16 13.52 15.16ZM13.52 13.52C13.96 13.52 14.3133 13.34 14.58 12.98C14.8467 12.6067 14.98 12.0467 14.98 11.3C14.98 10.5667 14.8467 10.0133 14.58 9.64C14.3133 9.26667 13.96 9.08 13.52 9.08C13.0933 9.08 12.74 9.26667 12.46 9.64C12.1933 10 12.06 10.5533 12.06 11.3C12.06 12.0467 12.1933 12.6067 12.46 12.98C12.74 13.34 13.0933 13.52 13.52 13.52Z" fill="#333333"/>
</svg>
